{"title":"Tell 2014 Movies HDRip XviD ESubs New Source with Sample ~ â˜»rDXâ˜»","uid":11650991,"size":742622680,"categoryP":"video","categoryS":"movies","magnet":"?xt=urn:btih:c5bed0d91e45a38d13462ab97e6e6e7bf5c73652&amp;dn=Tell+2014+Movies+HDRip+XviD+ESubs+New+Source+with+Sample+%7E+%E2%98%BBrDX%E2%98%BB&amp;tr=udp%3A%2F%2Ftracker.openbittorrent.com%3A80&amp;tr=udp%3A%2F%2Fopen.demonii.com%3A1337&amp;tr=udp%3A%2F%2Ftracker.coppersurfer.tk%3A6969&amp;tr=udp%3A%2F%2Fexodus.desync.com%3A6969","seeders":0,"leechers":2,"uploader":"basicssom","files":3,"time":1417874556,"description":"----------------------------------------------------------------\nTell 2014 Movies HDRip XviD ESubs New Source with Sample ~ â˜»rDXâ˜»\nTell 2014 English Movies HDRip XviD ESubs New Source with Sample ~ â˜»rDXâ˜»\n\nSCREEN SHOTS &amp; POSTER:\n &lt;a href=&quot;\nhttp://planethost.co.nr/12/Tell/11.html&quot; rel=&quot;nofollow&quot; target=&quot;_NEW&quot;&gt;\nhttp://planethost.co.nr/12/Tell/11.html&lt;/a&gt; &lt;a href=&quot;\nhttp://planethost.co.nr/12/Tell/1.html&quot; rel=&quot;nofollow&quot; target=&quot;_NEW&quot;&gt;\nhttp://planethost.co.nr/12/Tell/1.html&lt;/a&gt; &lt;a href=&quot;\nhttp://planethost.co.nr/12/Tell/2.html&quot; rel=&quot;nofollow&quot; target=&quot;_NEW&quot;&gt;\nhttp://planethost.co.nr/12/Tell/2.html&lt;/a&gt; &lt;a href=&quot;\nhttp://planethost.co.nr/12/Tell/3.html&quot; rel=&quot;nofollow&quot; target=&quot;_NEW&quot;&gt;\nhttp://planethost.co.nr/12/Tell/3.html&lt;/a&gt; &lt;a href=&quot;\nhttp://planethost.co.nr/12/Tell/4.html&quot; rel=&quot;nofollow&quot; target=&quot;_NEW&quot;&gt;\nhttp://planethost.co.nr/12/Tell/4.html&lt;/a&gt; &lt;a href=&quot;\nhttp://planethost.co.nr/12/Tell/5.html&quot; rel=&quot;nofollow&quot; target=&quot;_NEW&quot;&gt;\nhttp://planethost.co.nr/12/Tell/5.html&lt;/a&gt; &lt;a href=&quot;\nhttp://planethost.co.nr/12/Tell/6.html&quot; rel=&quot;nofollow&quot; target=&quot;_NEW&quot;&gt;\nhttp://planethost.co.nr/12/Tell/6.html&lt;/a&gt; &lt;a href=&quot;\nhttp://planethost.co.nr/12/Tell/7.html&quot; rel=&quot;nofollow&quot; target=&quot;_NEW&quot;&gt;\nhttp://planethost.co.nr/12/Tell/7.html&lt;/a&gt; &lt;a href=&quot;\nhttp://planethost.co.nr/12/Tell/8.html&quot; rel=&quot;nofollow&quot; target=&quot;_NEW&quot;&gt;\nhttp://planethost.co.nr/12/Tell/8.html&lt;/a&gt; &lt;a href=&quot;\nhttp://planethost.co.nr/12/Tell/9.html&quot; rel=&quot;nofollow&quot; target=&quot;_NEW&quot;&gt;\nhttp://planethost.co.nr/12/Tell/9.html&lt;/a&gt; &lt;a href=&quot;\nhttp://planethost.co.nr/12/Tell/10.html&quot; rel=&quot;nofollow&quot; target=&quot;_NEW&quot;&gt;\nhttp://planethost.co.nr/12/Tell/10.html&lt;/a&gt;\n\nFormat                                   : Matroska\nFormat version                           : Version 4 / Version 2\nFile size                                : 693 MiB\nDuration                                 : 1h 28mn\nOverall bit rate                         : 1 090 Kbps\nMovie name                               : Tell 2014 English Movies HDRip XviD ESubs ~ rDX ~\n\nVideo\nID                                       : 1\nFormat                                   : MPEG-4 Visual\nFormat profile                           : Advanced Simple@L5\nFormat settings, BVOP                    : Yes\nFormat settings, QPel                    : No\nFormat settings, GMC                     : No warppoints\nFormat settings, Matrix                  : Default (H.263)\nCodec ID                                 : V_MS/VFW/FOURCC / XVID\nCodec ID/Hint                            : XviD\nDuration                                 : 1h 28mn\nBit rate                                 : 940 Kbps\nWidth                                    : 640 pixels\nHeight                                   : 272 pixels\nDisplay aspect ratio                     : 2.35:1\nFrame rate mode                          : Constant\nFrame rate                               : 23.976 fps\nColor space                              : YUV\nChroma subsampling                       : 4:2:0\nBit depth                                : 8 bits\nScan type                                : Progressive\nCompression mode                         : Lossy\nBits/(Pixel*Frame)                       : 0.225\nStream size                              : 598 MiB (86%)\nTitle                                    : ~ rDX ~\nWriting library                          : XviD 66\nDefault                                  : Yes\nForced                                   : No\n\nAudio\nID                                       : 2\nFormat                                   : MPEG Audio\nFormat version                           : Version 1\nFormat profile                           : Layer 3\nMode                                     : Joint stereo\nMode extension                           : MS Stereo\nCodec ID                                 : A_MPEG/L3\nCodec ID/Hint                            : MP3\nDuration                                 : 1h 28mn\nBit rate mode                            : Constant\nBit rate                                 : 128 Kbps\nChannel(s)                               : 2 channels\nSampling rate                            : 48.0 KHz\nCompression mode                         : Lossy\nStream size                              : 81.4 MiB (12%)\nTitle                                    : ~ rDX ~\nWriting library                          : LAME3.99r\nEncoding settings                        : -m j -V 4 -q 3 -lowpass 17 -b 128\nDefault                                  : Yes\nForced                                   : No","torrent":{"xt":"urn:btih:c5bed0d91e45a38d13462ab97e6e6e7bf5c73652","amp;dn":"Tell+2014+Movies+HDRip+XviD+ESubs+New+Source+with+Sample+%7E+%E2%98%BBrDX%E2%98%BB","amp;tr":["udp%3A%2F%2Ftracker.openbittorrent.com%3A80","udp%3A%2F%2Fopen.demonii.com%3A1337","udp%3A%2F%2Ftracker.coppersurfer.tk%3A6969","udp%3A%2F%2Fexodus.desync.com%3A6969"],"infoHash":"c5bed0d91e45a38d13462ab97e6e6e7bf5c73652","infoHashBuffer":{"type":"Buffer","data":[197,190,208,217,30,69,163,141,19,70,42,185,126,110,110,123,245,199,54,82]},"announce":[],"urlList":[]}}